<svg xmlns="http://www.w3.org/2000/svg" xmlns:xlink="http://www.w3.org/1999/xlink" width="36" height="36" preserveAspectRatio="xMidYMid meet" viewBox="0 0 36 36" style="-ms-transform: rotate(360deg); -webkit-transform: rotate(360deg); transform: rotate(360deg);"><path d="M21 12H7a1 1 0 0 1-1-1V7a1 1 0 0 1 1-1h14a1 1 0 0 1 1 1v4a1 1 0 0 1-1 1zM8 10h12V7.94H8z" class="clr-i-outline clr-i-outline-path-1" fill="#626262"/><path d="M21 14.08H7a1 1 0 0 0-1 1V19a1 1 0 0 0 1 1h11.36L22 16.3v-1.22a1 1 0 0 0-1-1zM20 18H8v-2h12z" class="clr-i-outline clr-i-outline-path-2" fill="#626262"/><path d="M11.06 31.51v-.06l.32-1.39H4V4h20v10.25l2-1.89V3a1 1 0 0 0-1-1H3a1 1 0 0 0-1 1v28a1 1 0 0 0 1 1h8a3.44 3.44 0 0 1 .06-.49z" class="clr-i-outline clr-i-outline-path-3" fill="#626262"/><path d="M22 19.17l-.78.79a1 1 0 0 0 .78-.79z" class="clr-i-outline clr-i-outline-path-4" fill="#626262"/><path d="M6 26.94a1 1 0 0 0 1 1h4.84l.3-1.3l.13-.55v-.05H8V24h6.34l2-2H7a1 1 0 0 0-1 1z" class="clr-i-outline clr-i-outline-path-5" fill="#626262"/><path d="M33.49 16.67l-3.37-3.37a1.61 1.61 0 0 0-2.28 0L14.13 27.09L13 31.9a1.61 1.61 0 0 0 1.26 1.9a1.55 1.55 0 0 0 .31 0a1.15 1.15 0 0 0 .37 0l4.85-1.07L33.49 19a1.6 1.6 0 0 0 0-2.27zM18.77 30.91l-3.66.81l.89-3.63L26.28 17.7l2.82 2.82zm11.46-11.52l-2.82-2.82L29 15l2.84 2.84z" class="clr-i-outline clr-i-outline-path-6" fill="#626262"/><rect x="0" y="0" width="36" height="36" fill="rgba(0, 0, 0, 0)" /></svg>