<svg id="Ebene_1" data-name="Ebene 1" xmlns="http://www.w3.org/2000/svg" width="117.19mm" height="58.52mm" viewBox="0 0 332.18 165.89"><defs><style>.cls-1{fill:#575756;}.cls-2{fill:#0c9ea5;}.cls-2,.cls-3{opacity:0.7;}.cls-3{fill:#008d38;}</style></defs><title>IDE</title><path class="cls-1" d="M354.73,330.31v-108h9.72V330.31Z" transform="translate(-214.2 -193.42)"/><path class="cls-1" d="M391.34,330.31v-108h25c34.51,0,55.89,17.65,55.89,52.48,0,38.89-25.76,55.57-61.88,55.57Zm9.72-8.75h9.07c31.76,0,51.84-13.28,51.84-46.82,0-28.67-16.84-43.74-45.36-43.74H401.06Z" transform="translate(-214.2 -193.42)"/><path class="cls-1" d="M492.91,330.31v-108h51.68V231h-42v39.53h39.7V279h-39.7v42.6h43.75v8.75Z" transform="translate(-214.2 -193.42)"/><path class="cls-2" d="M281.75,276.71c0-41.53,44.62-83.29,98-83.29l-17.52.09c-.54,0-1.07,0-1.61,0-48.84,0-88.43,37.12-88.43,82.92s39.59,82.92,88.43,82.92c.54,0,1.07,0,1.61,0l17.46,0C326.37,359.31,281.75,318.23,281.75,276.71Z" transform="translate(-214.2 -193.42)"/><path class="cls-3" d="M312.21,276.71c0-41.53-44.62-83.29-98-83.29l17.52.09c.54,0,1.07,0,1.61,0,48.83,0,88.42,37.12,88.42,82.92s-39.59,82.92-88.42,82.92c-.54,0-1.07,0-1.61,0l-17.47,0C267.59,359.31,312.21,318.23,312.21,276.71Z" transform="translate(-214.2 -193.42)"/></svg>